<svg xmlns="http://www.w3.org/2000/svg" viewBox="0 0 429.176 51"><path d="M60.068 3.4l-17.43 46.377-12.544-28.526-12.423 28.647L0 3.398h8.684L17.851 28 30.094 2.489 41.977 28l9.65-24.606zm18.634 44.623h-8.563l-.121-32.325-4.824 3.86-2.417-5.308 15.921-11.1zm36.005 0H82.321l21.59-25.39q3.015-3.556 3.016-6.212a6.27 6.27 0 0 0-2.2-4.7 6.978 6.978 0 0 0-4.854-2.05 7.663 7.663 0 0 0-5.579 2.081 7.344 7.344 0 0 0-2.141 5.518h-7.9Q85.7 2.555 99.33 2.554a22.307 22.307 0 0 1 3.076.181 14.051 14.051 0 0 1 8.564 4.734 13.051 13.051 0 0 1 3.618 8.956 13.916 13.916 0 0 1-3.377 9.288l-12.907 15.2h16.4zm13.509-6.031v7h-8.439v-6.875zm15.68-37.15V12.8h-7.719V4.839zm.181 43.181h-7.659V19.437h7.659zm36.788-13.69a13.4 13.4 0 0 1-4.735 10.464 16.168 16.168 0 0 1-11.067 4.191 15.969 15.969 0 0 1-10.916-4.161 13.547 13.547 0 0 1-4.885-10.494 13.765 13.765 0 0 1 4.765-10.675 16.9 16.9 0 0 1 22.073 0 13.768 13.768 0 0 1 4.765 10.675zm-7.66 0a7.389 7.389 0 0 0-2.382-5.578 8.063 8.063 0 0 0-5.76-2.262 8.273 8.273 0 0 0-5.82 2.262 7.37 7.37 0 0 0-2.442 5.639 6.9 6.9 0 0 0 2.593 5.427 8.483 8.483 0 0 0 11.368-.03 7.05 7.05 0 0 0 2.443-5.458zm56.515-14.444h-6.216v-14.7h10.373V7.31h-8.064v3.108h3.906a5.633 5.633 0 0 1 3.948 1.323 4.771 4.771 0 0 1 0 6.847 5.647 5.647 0 0 1-3.947 1.301zm-3.906-7.35v5.229h3.7a3.752 3.752 0 0 0 2.4-.682 2.6 2.6 0 0 0-.01-3.854 3.723 3.723 0 0 0-2.394-.693zm19.277-.966h-3.885l-.041 1.491a14.975 14.975 0 0 1-.463 3.822 3.556 3.556 0 0 1-3.548 3.046 2.559 2.559 0 0 1-.714-.084V17.9a1.778 1.778 0 0 0 .462.062 1.61 1.61 0 0 0 1.575-1.145 11.959 11.959 0 0 0 .5-3.874l.063-3.36h8.317v10.311h-2.27zm15.186 6.552a1.28 1.28 0 0 0 .609-.146V19.7a2.227 2.227 0 0 1-1.323.336 1.966 1.966 0 0 1-2.163-1.47 4.809 4.809 0 0 1-3.8 1.6 4.2 4.2 0 0 1-2.773-.924 3.114 3.114 0 0 1-1.091-2.541 2.942 2.942 0 0 1 1.2-2.52 4.684 4.684 0 0 1 2.939-.9 6.651 6.651 0 0 1 3.3.8v-.567q0-2.247-3.024-2.247a6.062 6.062 0 0 0-3.255.924v-2a7.425 7.425 0 0 1 3.759-.882 5.383 5.383 0 0 1 3.475 1.04 3.519 3.519 0 0 1 1.291 2.908V17.1a1.1 1.1 0 0 0 .243.756.787.787 0 0 0 .613.269zm-3.108-1.155v-1.26a5.513 5.513 0 0 0-2.751-.735 3.216 3.216 0 0 0-1.775.42 1.33 1.33 0 0 0-.64 1.176 1.393 1.393 0 0 0 .6 1.218 2.788 2.788 0 0 0 1.628.42 4.081 4.081 0 0 0 1.638-.346 3.812 3.812 0 0 0 1.298-.893zm8.229 2.919h-2.268V9.578h7.98v2h-5.712zm12.579.273a5.559 5.559 0 0 1-4.074-1.574 5.451 5.451 0 0 1 0-7.708 6.031 6.031 0 0 1 8.128 0 5.2 5.2 0 0 1 1.595 3.843 5.27 5.27 0 0 1-1.595 3.865 5.584 5.584 0 0 1-4.054 1.574zm0-2a3.285 3.285 0 0 0 2.415-.987 3.581 3.581 0 0 0 0-4.893 3.392 3.392 0 0 0-5.817 2.436 3.338 3.338 0 0 0 3.4 3.444zm12.411 1.727h-2.268v-8.316h-3.486v-2h9.219v2h-3.465zm11.466 0h-5.943V9.578h5.628a3.574 3.574 0 0 1 2.373.725 2.363 2.363 0 0 1 .861 1.9 2.537 2.537 0 0 1-.367 1.355 2.2 2.2 0 0 1-.956.871 2.53 2.53 0 0 1 2.016 2.646 2.478 2.478 0 0 1-.955 2.069 4.223 4.223 0 0 1-2.657.745zm-3.677-8.489v2.289h2.814a1.887 1.887 0 0 0 1.145-.3.982.982 0 0 0 .409-.83q0-1.154-1.554-1.155zm0 4.116v2.541h3.276a2.055 2.055 0 0 0 1.249-.335 1.092 1.092 0 0 0 .452-.925 1.11 1.11 0 0 0-.452-.945 2.048 2.048 0 0 0-1.249-.336zm14.87 4.646a5.56 5.56 0 0 1-4.074-1.574 5.451 5.451 0 0 1 0-7.708 6.031 6.031 0 0 1 8.128 0 5.2 5.2 0 0 1 1.6 3.843 5.271 5.271 0 0 1-1.6 3.865 5.583 5.583 0 0 1-4.054 1.574zm0-2a3.285 3.285 0 0 0 2.415-.987 3.581 3.581 0 0 0 0-4.893 3.392 3.392 0 0 0-5.816 2.436 3.338 3.338 0 0 0 3.4 3.444zm14.09-8.857a4.6 4.6 0 0 1 3.592 1.575 5.985 5.985 0 0 1 0 7.708 4.607 4.607 0 0 1-3.592 1.574 4.377 4.377 0 0 1-3.675-1.68v5.608h-2.267V9.578h2.267v1.407a4.38 4.38 0 0 1 3.675-1.68zm-.608 2a3.339 3.339 0 0 0-1.807.514 3.547 3.547 0 0 0-1.26 1.334v3.192a3.546 3.546 0 0 0 1.271 1.312 3.333 3.333 0 0 0 1.8.515 3.148 3.148 0 0 0 2.373-.987 3.437 3.437 0 0 0 .944-2.436 3.39 3.39 0 0 0-.944-2.436 3.116 3.116 0 0 0-2.377-1.013zm10.227 8.584h-2.121V9.578h2.268v6.993l5.565-6.993h2.121v10.311h-2.268v-7.014zm15.621 0h-2.267v-8.316h-3.487v-2h9.219v2h-3.465zm4.6-5.166a5.362 5.362 0 0 1 1.469-3.864 5.068 5.068 0 0 1 3.823-1.554 4.369 4.369 0 0 1 2.709.84 5.345 5.345 0 0 1 2.184 4.662v.588h-7.9a2.964 2.964 0 0 0 1.25 2.037 4.453 4.453 0 0 0 2.635.735 6.385 6.385 0 0 0 3.318-.924v1.911a6.466 6.466 0 0 1-3.8 1.008 5.851 5.851 0 0 1-4.054-1.512 5.1 5.1 0 0 1-1.634-3.927zm2.31-1.05h5.59a2.556 2.556 0 0 0-2.709-2.457 2.869 2.869 0 0 0-1.984.7 2.624 2.624 0 0 0-.895 1.757zm17.914-2.1h-3.884l-.042 1.491a15.023 15.023 0 0 1-.462 3.822 3.557 3.557 0 0 1-3.549 3.046 2.564 2.564 0 0 1-.714-.084V17.9a1.784 1.784 0 0 0 .462.062 1.608 1.608 0 0 0 1.574-1.145 11.868 11.868 0 0 0 .5-3.874l.063-3.36h8.316v10.311h-2.269zm10.836 8.316h-5.334V9.578h2.268v3.129h2.961a4.473 4.473 0 0 1 3.024.977 3.274 3.274 0 0 1 1.134 2.614 3.47 3.47 0 0 1-1.071 2.583 4.18 4.18 0 0 1-2.982 1.008zm-3.066-5.271v3.361h2.706a2.435 2.435 0 0 0 1.555-.452 1.637 1.637 0 0 0 .009-2.468 2.461 2.461 0 0 0-1.564-.441zm11.886 5.271h-2.268V9.578h2.268v4.032h5.229V9.578h2.268v10.311h-2.268v-4.284h-5.229zm20.412-1.764a1.277 1.277 0 0 0 .609-.146V19.7a2.225 2.225 0 0 1-1.323.336 1.966 1.966 0 0 1-2.163-1.47 4.809 4.809 0 0 1-3.8 1.6 4.194 4.194 0 0 1-2.772-.924 3.112 3.112 0 0 1-1.092-2.541 2.942 2.942 0 0 1 1.2-2.52 4.685 4.685 0 0 1 2.94-.9 6.648 6.648 0 0 1 3.3.8v-.567q0-2.247-3.024-2.247a6.062 6.062 0 0 0-3.255.924v-2a7.427 7.427 0 0 1 3.759-.882 5.383 5.383 0 0 1 3.475 1.04 3.519 3.519 0 0 1 1.291 2.908V17.1a1.1 1.1 0 0 0 .243.756.787.787 0 0 0 .612.269zm-3.108-1.155v-1.26a5.513 5.513 0 0 0-2.751-.735 3.219 3.219 0 0 0-1.775.42 1.33 1.33 0 0 0-.64 1.176 1.4 1.4 0 0 0 .6 1.218 2.788 2.788 0 0 0 1.628.42 4.077 4.077 0 0 0 1.638-.346 3.812 3.812 0 0 0 1.3-.893zm7.686 2.919h-2.6l2.919-4.011a2.911 2.911 0 0 1-1.69-1.071 3.2 3.2 0 0 1-.6-1.974 3.008 3.008 0 0 1 1-2.373 4.229 4.229 0 0 1 2.888-.882h5.413v10.311h-2.268V16.34h-2.5zm2.226-5.376h2.835V11.4h-2.831a2.132 2.132 0 0 0-1.4.409 1.574 1.574 0 0 0 0 2.29 2.132 2.132 0 0 0 1.4.414zM225.562 42.889h-2.268V32.578h9.617v10.311h-2.267v-8.316h-5.082zm18.06-8.316h-3.884l-.043 1.491a15.08 15.08 0 0 1-.461 3.823 3.559 3.559 0 0 1-3.55 3.045 2.564 2.564 0 0 1-.714-.084V40.9a1.8 1.8 0 0 0 .462.062 1.61 1.61 0 0 0 1.575-1.145 11.9 11.9 0 0 0 .5-3.874l.062-3.36h8.317v10.311h-2.268zm15.183 6.552a1.275 1.275 0 0 0 .609-.146V42.7a2.225 2.225 0 0 1-1.323.336 1.967 1.967 0 0 1-2.163-1.47 4.809 4.809 0 0 1-3.8 1.6 4.194 4.194 0 0 1-2.772-.924 3.112 3.112 0 0 1-1.092-2.541 2.94 2.94 0 0 1 1.2-2.519 4.68 4.68 0 0 1 2.94-.9 6.655 6.655 0 0 1 3.3.8v-.566q0-2.247-3.025-2.248a6.062 6.062 0 0 0-3.255.924v-1.994a7.43 7.43 0 0 1 3.759-.883 5.388 5.388 0 0 1 3.476 1.04 3.522 3.522 0 0 1 1.291 2.908V40.1a1.1 1.1 0 0 0 .242.756.787.787 0 0 0 .613.269zm-3.107-1.154V38.71a5.529 5.529 0 0 0-2.751-.735 3.22 3.22 0 0 0-1.776.42 1.331 1.331 0 0 0-.64 1.176 1.4 1.4 0 0 0 .6 1.218 2.792 2.792 0 0 0 1.628.42 4.074 4.074 0 0 0 1.638-.346 3.829 3.829 0 0 0 1.301-.892zm10.184 2.918h-2.267v-8.316h-3.487v-2h9.219v2h-3.465zm12.684 4.201h-2.268v-4.033a6.288 6.288 0 0 1-4.264-1.554 5.01 5.01 0 0 1-1.553-3.78 4.855 4.855 0 0 1 1.544-3.738 6.6 6.6 0 0 1 4.273-1.575v-4.221h2.268v4.221a6.6 6.6 0 0 1 4.273 1.575 4.858 4.858 0 0 1 1.544 3.738 5.011 5.011 0 0 1-1.554 3.78 6.283 6.283 0 0 1-4.263 1.554zm-2.268-5.944v-6.825a3.758 3.758 0 0 0-2.6.956 3.18 3.18 0 0 0-1.008 2.446 3.239 3.239 0 0 0 1.008 2.478 3.652 3.652 0 0 0 2.6.945zm2.268-6.825v6.825a3.654 3.654 0 0 0 2.6-.945 3.239 3.239 0 0 0 1.011-2.478 3.18 3.18 0 0 0-1.008-2.446 3.76 3.76 0 0 0-2.603-.956zm13.251 8.841a5.563 5.563 0 0 1-4.075-1.574 5.452 5.452 0 0 1 0-7.707 6.028 6.028 0 0 1 8.128 0 5.19 5.19 0 0 1 1.6 3.842 5.267 5.267 0 0 1-1.6 3.865 5.58 5.58 0 0 1-4.053 1.574zm0-2a3.286 3.286 0 0 0 2.415-.987 3.581 3.581 0 0 0 0-4.893 3.392 3.392 0 0 0-5.817 2.436 3.338 3.338 0 0 0 3.4 3.444zm14.089-8.857a4.6 4.6 0 0 1 3.592 1.576 5.98 5.98 0 0 1 0 7.707 4.6 4.6 0 0 1-3.592 1.574 4.375 4.375 0 0 1-3.674-1.68v5.608h-2.268V32.578h2.268v1.407a4.378 4.378 0 0 1 3.674-1.68zm-.608 2a3.341 3.341 0 0 0-1.807.513 3.552 3.552 0 0 0-1.259 1.334v3.192a3.543 3.543 0 0 0 1.27 1.312 3.337 3.337 0 0 0 1.8.515 3.148 3.148 0 0 0 2.373-.987 3.433 3.433 0 0 0 .944-2.436 3.384 3.384 0 0 0-.944-2.435 3.116 3.116 0 0 0-2.377-1.013zm10.29 8.584h-2.183V32.578h2.225l3.528 4.284 3.549-4.284h2.227v10.311h-2.185v-7.224l-3.15 3.8h-.882l-3.129-3.8zm22.26-1.764a1.275 1.275 0 0 0 .609-.146V42.7a2.225 2.225 0 0 1-1.323.336 1.967 1.967 0 0 1-2.163-1.47 4.809 4.809 0 0 1-3.8 1.6 4.194 4.194 0 0 1-2.772-.924 3.112 3.112 0 0 1-1.092-2.541 2.94 2.94 0 0 1 1.2-2.519 4.68 4.68 0 0 1 2.94-.9 6.648 6.648 0 0 1 3.3.8v-.566q0-2.247-3.024-2.248a6.062 6.062 0 0 0-3.255.924v-1.994a7.43 7.43 0 0 1 3.759-.883 5.388 5.388 0 0 1 3.476 1.04 3.522 3.522 0 0 1 1.291 2.908V40.1a1.1 1.1 0 0 0 .242.756.787.787 0 0 0 .612.269zm-3.108-1.154V38.71a5.523 5.523 0 0 0-2.751-.735 3.219 3.219 0 0 0-1.775.42 1.331 1.331 0 0 0-.64 1.176 1.4 1.4 0 0 0 .6 1.218 2.792 2.792 0 0 0 1.628.42 4.074 4.074 0 0 0 1.638-.346 3.815 3.815 0 0 0 1.3-.892zm20.875 2.918h-10.228v-1.68l4.62-4.326a15.938 15.938 0 0 0 2.163-2.352 3.57 3.57 0 0 0 .63-2.015 2.232 2.232 0 0 0-.809-1.8 3.159 3.159 0 0 0-2.11-.683 5.926 5.926 0 0 0-4.116 1.827v-2.415a6.5 6.5 0 0 1 4.348-1.533 5.352 5.352 0 0 1 3.527 1.2 3.843 3.843 0 0 1 1.471 3.129 5.143 5.143 0 0 1-.736 2.709 15.716 15.716 0 0 1-2.478 2.856l-3.171 3.024h6.889zm3.695.168a1.469 1.469 0 0 1-1.491-1.491 1.415 1.415 0 0 1 .43-1.039 1.481 1.481 0 0 1 2.089 0 1.4 1.4 0 0 1 .442 1.039 1.443 1.443 0 0 1-.431 1.061 1.416 1.416 0 0 1-1.039.43zm9.177.105a5.4 5.4 0 0 1-4.495-2.2 9.546 9.546 0 0 1 0-10.814 5.381 5.381 0 0 1 4.495-2.227 5.312 5.312 0 0 1 4.494 2.227 9.444 9.444 0 0 1 0 10.814 5.328 5.328 0 0 1-4.494 2.2zm0-2.163a3.261 3.261 0 0 0 2.813-1.575 7.582 7.582 0 0 0 0-7.77 3.27 3.27 0 0 0-5.606.022 6.708 6.708 0 0 0-1.072 3.863 6.875 6.875 0 0 0 1.072 3.885A3.243 3.243 0 0 0 368.487 41zM200.177 0h2v51h-2z"/></svg>